<svg xmlns="http://www.w3.org/2000/svg" xmlns:xlink="http://www.w3.org/1999/xlink" width="500" zoomAndPan="magnify" viewBox="0 0 375 374.999991" height="500" preserveAspectRatio="xMidYMid meet" version="1.0"><defs><g/><clipPath id="8cce37660e"><path d="M 91.03125 91.03125 L 283.96875 91.03125 L 283.96875 283.96875 L 91.03125 283.96875 Z M 91.03125 91.03125 " clip-rule="nonzero"/></clipPath><clipPath id="50ae68d58e"><path d="M 187.5 283.96875 C 161.742188 283.96875 137.492188 273.945312 119.292969 255.707031 C 101.054688 237.507812 91.03125 213.257812 91.03125 187.5 C 91.03125 161.742188 101.054688 137.492188 119.292969 119.292969 C 137.492188 101.054688 161.742188 91.03125 187.5 91.03125 C 213.257812 91.03125 237.507812 101.054688 255.707031 119.292969 C 273.945312 137.53125 283.96875 161.742188 283.96875 187.5 C 283.96875 213.257812 273.945312 237.507812 255.707031 255.707031 C 237.507812 273.945312 213.257812 283.96875 187.5 283.96875 Z M 187.5 96.8125 C 163.285156 96.8125 140.5 106.261719 123.378906 123.378906 C 106.261719 140.5 96.8125 163.285156 96.8125 187.5 C 96.8125 211.714844 106.261719 234.5 123.378906 251.621094 C 140.5 268.738281 163.285156 278.1875 187.5 278.1875 C 211.714844 278.1875 234.5 268.738281 251.621094 251.621094 C 268.738281 234.5 278.1875 211.714844 278.1875 187.5 C 278.1875 163.285156 268.738281 140.5 251.621094 123.378906 C 234.5 106.261719 211.714844 96.8125 187.5 96.8125 Z M 187.5 96.8125 " clip-rule="nonzero"/></clipPath><clipPath id="c34e3ef737"><path d="M 111.828125 167.726562 L 149 167.726562 L 149 202 L 111.828125 202 Z M 111.828125 167.726562 " clip-rule="nonzero"/></clipPath><clipPath id="94ffcb59bb"><path d="M 111.828125 211 L 170 211 L 170 218 L 111.828125 218 Z M 111.828125 211 " clip-rule="nonzero"/></clipPath><clipPath id="1c269bab8a"><path d="M 228 218 L 251 218 L 251 223.226562 L 228 223.226562 Z M 228 218 " clip-rule="nonzero"/></clipPath></defs><rect x="-37.5" width="450" fill="#ffffff" y="-37.499999" height="449.999989" fill-opacity="1"/><rect x="-37.5" width="450" fill="#0a131e" y="-37.499999" height="449.999989" fill-opacity="1"/><g clip-path="url(#8cce37660e)"><g clip-path="url(#50ae68d58e)"><path fill="#ffa500" d="M 91.03125 91.03125 L 283.96875 91.03125 L 283.96875 283.96875 L 91.03125 283.96875 Z M 91.03125 91.03125 " fill-opacity="1" fill-rule="nonzero"/></g></g><g clip-path="url(#c34e3ef737)"><path fill="#ffa500" d="M 144.5625 168.214844 C 145.910156 167.996094 147.261719 167.746094 148.628906 167.726562 C 144.683594 168.335938 140.785156 169.296875 137.058594 170.738281 C 133.625 172.066406 130.378906 173.878906 127.449219 176.109375 C 124.71875 178.148438 122.277344 180.53125 119.6875 182.734375 C 116.769531 185.15625 113.582031 187.234375 110.285156 189.101562 C 103.214844 193.070312 95.660156 196.101562 87.972656 198.628906 C 84.65625 199.703125 81.3125 200.699219 77.933594 201.554688 C 77.433594 201.667969 76.945312 201.839844 76.433594 201.871094 C 78.359375 201.402344 80.253906 200.796875 82.15625 200.238281 C 90.210938 197.757812 98.140625 194.773438 105.625 190.875 C 110.910156 188.109375 115.976562 184.867188 120.417969 180.871094 C 121.476562 179.957031 122.429688 178.925781 123.5 178.023438 C 129.4375 172.882812 136.863281 169.609375 144.5625 168.214844 Z M 144.5625 168.214844 " fill-opacity="1" fill-rule="nonzero"/></g><path fill="#ffa500" d="M 163.253906 168.84375 C 171.800781 168.28125 180.378906 168.945312 188.84375 170.140625 C 191.058594 170.3125 193.125 171.160156 195.207031 171.855469 C 201.738281 174.09375 208.195312 176.558594 214.460938 179.464844 C 209.113281 178.988281 203.738281 178.828125 198.367188 178.816406 C 191.953125 178.785156 185.539062 178.972656 179.128906 179.289062 C 177.605469 179.375 176.0625 179.421875 174.554688 179.144531 C 173.355469 178.921875 172.171875 178.464844 171.234375 177.671875 C 168.683594 175.382812 166.261719 172.941406 163.507812 170.894531 C 163.03125 170.519531 162.4375 170.261719 162.097656 169.742188 C 161.964844 169.570312 161.941406 169.285156 162.144531 169.152344 C 162.460938 168.921875 162.875 168.886719 163.253906 168.84375 Z M 163.253906 168.84375 " fill-opacity="1" fill-rule="nonzero"/><path fill="#ffa500" d="M 149.570312 170.398438 C 151.753906 170.171875 153.988281 170.277344 156.101562 170.902344 C 158.910156 171.703125 161.445312 173.320312 163.503906 175.375 C 165.238281 177.082031 166.644531 179.097656 167.824219 181.21875 C 159.378906 181.5625 150.933594 181.875 142.488281 182.222656 C 141.328125 179.695312 139.828125 177.292969 137.855469 175.324219 C 137.527344 174.980469 137.078125 174.710938 136.933594 174.234375 C 136.90625 173.859375 137.320312 173.699219 137.597656 173.5625 C 139.023438 172.960938 140.492188 172.464844 141.96875 172.007812 C 144.449219 171.253906 146.988281 170.648438 149.570312 170.398438 Z M 149.570312 170.398438 " fill-opacity="1" fill-rule="nonzero"/><path fill="#ffa500" d="M 133.046875 175.671875 C 133.601562 175.394531 134.144531 175.011719 134.785156 174.984375 C 135.277344 175.039062 135.65625 175.402344 136.023438 175.695312 C 137.109375 176.671875 137.953125 177.878906 138.753906 179.089844 C 139.199219 179.78125 139.621094 180.484375 140.015625 181.207031 C 140.148438 181.472656 140.296875 181.792969 140.164062 182.085938 C 139.96875 182.386719 139.566406 182.351562 139.253906 182.359375 C 136.9375 182.328125 134.621094 182.371094 132.308594 182.4375 C 130.09375 182.535156 127.871094 182.65625 125.683594 183.011719 C 124.882812 183.152344 124.074219 183.300781 123.335938 183.636719 C 125.023438 180.757812 127.65625 178.542969 130.550781 176.9375 C 131.363281 176.472656 132.210938 176.082031 133.046875 175.671875 Z M 133.046875 175.671875 " fill-opacity="1" fill-rule="nonzero"/><path fill="#ffa500" d="M 186.761719 180.722656 C 191.820312 180.601562 196.882812 180.46875 201.9375 180.234375 C 207.390625 180.050781 212.863281 180.128906 218.300781 180.628906 C 223.003906 181.042969 227.699219 181.542969 232.378906 182.160156 C 234.847656 182.492188 237.3125 182.851562 239.753906 183.339844 C 243.375 184.042969 247.035156 184.761719 250.429688 186.246094 C 251.449219 186.703125 252.445312 187.214844 253.394531 187.808594 C 251.46875 187.066406 249.492188 186.429688 247.460938 186.042969 C 246.597656 185.867188 245.71875 185.78125 244.859375 185.609375 C 243.878906 185.527344 242.894531 185.617188 241.914062 185.605469 C 238.863281 185.628906 235.804688 185.726562 232.777344 186.140625 C 232.382812 186.203125 231.925781 186.273438 231.679688 186.625 C 231.460938 186.96875 231.625 187.394531 231.78125 187.730469 C 232.832031 189.578125 233.769531 191.488281 234.746094 193.378906 C 235.410156 194.710938 236.105469 196.027344 236.753906 197.371094 C 234.101562 193.148438 230.449219 189.570312 226.214844 186.945312 C 225.492188 186.5 224.75 186.078125 223.980469 185.714844 C 222.9375 185.234375 221.804688 184.972656 220.671875 184.792969 C 218.496094 184.511719 216.34375 184.046875 214.179688 183.6875 C 203.847656 181.898438 193.375 180.847656 182.886719 180.832031 C 184.175781 180.742188 185.46875 180.761719 186.761719 180.722656 Z M 186.761719 180.722656 " fill-opacity="1" fill-rule="nonzero"/><path fill="#ffa500" d="M 212.550781 186.453125 C 214.1875 186.796875 215.835938 187.394531 217.09375 188.535156 C 217.820312 189.179688 218.359375 190.046875 218.589844 190.992188 C 218.746094 191.617188 218.664062 192.316406 218.277344 192.839844 C 217.8125 193.484375 217.066406 193.855469 216.328125 194.097656 C 217.003906 193.582031 217.703125 193 217.988281 192.164062 C 218.261719 191.386719 218.003906 190.53125 217.527344 189.890625 C 216.785156 188.875 215.730469 188.140625 214.660156 187.507812 C 213.980469 187.109375 213.273438 186.761719 212.550781 186.453125 Z M 212.550781 186.453125 " fill-opacity="1" fill-rule="nonzero"/><path fill="#ffa500" d="M 244.011719 186.449219 C 244.464844 186.390625 244.925781 186.371094 245.382812 186.417969 C 247.542969 186.855469 249.726562 187.230469 251.828125 187.917969 C 252.4375 188.121094 253.054688 188.371094 253.554688 188.789062 C 254.222656 189.3125 254.652344 190.082031 254.925781 190.875 C 255.410156 192.300781 255.917969 193.71875 256.269531 195.183594 C 256.410156 195.808594 256.570312 196.503906 256.246094 197.101562 C 256.058594 197.484375 255.613281 197.675781 255.203125 197.648438 C 251.078125 197.335938 246.941406 197.171875 242.804688 197.105469 C 241.746094 197.0625 240.652344 197.207031 239.632812 196.855469 C 238.484375 196.460938 237.648438 195.511719 236.972656 194.546875 C 235.867188 192.9375 234.882812 191.25 233.964844 189.53125 C 233.679688 188.949219 233.414062 188.28125 233.578125 187.628906 C 233.707031 187.148438 234.222656 186.9375 234.675781 186.90625 C 237.777344 186.601562 240.902344 186.601562 244.011719 186.449219 Z M 244.011719 186.449219 " fill-opacity="1" fill-rule="nonzero"/><path fill="#ffa500" d="M 209.992188 186.554688 C 211.605469 186.425781 213.132812 187.15625 214.488281 187.964844 C 215.347656 188.488281 216.1875 189.109375 216.769531 189.945312 C 217.246094 190.625 217.488281 191.492188 217.335938 192.316406 C 217.113281 193.058594 216.433594 193.574219 215.714844 193.789062 C 214.792969 194.058594 213.804688 194.023438 212.871094 193.84375 C 210.660156 193.414062 208.75 191.8125 207.855469 189.757812 C 207.578125 189.144531 207.535156 188.371094 207.980469 187.820312 C 208.484375 187.203125 209.164062 186.628906 209.992188 186.554688 Z M 209.992188 186.554688 " fill-opacity="1" fill-rule="nonzero"/><path fill="#ffa500" d="M 220.535156 186.597656 C 222.132812 186.328125 223.734375 186.953125 225.03125 187.851562 C 225.863281 188.417969 226.601562 189.113281 227.28125 189.851562 C 227.902344 190.492188 228.300781 191.328125 228.519531 192.1875 C 228.671875 192.878906 228.683594 193.679688 228.226562 194.269531 C 227.691406 194.945312 226.765625 195.164062 225.941406 195.144531 C 223.730469 194.933594 221.632812 193.734375 220.328125 191.9375 C 219.851562 191.292969 219.46875 190.578125 219.179688 189.832031 C 218.949219 189.144531 218.882812 188.367188 219.171875 187.6875 C 219.410156 187.128906 219.9375 186.707031 220.535156 186.597656 Z M 220.535156 186.597656 " fill-opacity="1" fill-rule="nonzero"/><path fill="#ffa500" d="M 224.242188 186.839844 C 225.652344 187.605469 227.058594 188.40625 228.269531 189.46875 C 228.878906 190.023438 229.464844 190.640625 229.785156 191.414062 C 230.035156 191.988281 230.0625 192.679688 229.777344 193.242188 C 229.558594 193.710938 229.171875 194.0625 228.773438 194.371094 C 229.1875 193.617188 229.289062 192.703125 229.015625 191.886719 C 228.589844 190.574219 227.628906 189.535156 226.628906 188.628906 C 225.894531 187.957031 225.058594 187.40625 224.242188 186.839844 Z M 224.242188 186.839844 " fill-opacity="1" fill-rule="nonzero"/><path fill="#ffa500" d="M 255.339844 189.835938 C 255.378906 189.8125 255.457031 189.769531 255.5 189.746094 C 255.890625 189.832031 256.191406 190.125 256.472656 190.394531 C 257.292969 191.261719 257.859375 192.328125 258.339844 193.410156 C 258.660156 194.167969 259.011719 194.921875 259.128906 195.742188 C 259.160156 196.09375 259.195312 196.511719 258.933594 196.789062 C 258.769531 196.894531 258.589844 196.761719 258.46875 196.65625 C 257.40625 195.613281 256.878906 194.175781 256.207031 192.871094 C 255.855469 192.117188 255.472656 191.359375 255.273438 190.546875 C 255.238281 190.3125 255.167969 190.03125 255.339844 189.835938 Z M 255.339844 189.835938 " fill-opacity="1" fill-rule="nonzero"/><path fill="#ffa500" d="M 184.042969 192.417969 C 185.832031 192.097656 187.722656 192.109375 189.433594 192.777344 C 190.9375 193.34375 192.238281 194.371094 193.238281 195.617188 C 194.484375 197.167969 195.316406 199.015625 195.871094 200.917969 C 196.464844 203.007812 196.75 205.183594 196.722656 207.355469 C 196.609375 209.289062 196.351562 211.222656 195.839844 213.09375 C 195.359375 214.847656 194.636719 216.5625 193.53125 218.023438 C 192.558594 219.3125 191.265625 220.371094 189.773438 220.992188 C 188.078125 221.710938 186.183594 221.878906 184.367188 221.644531 C 185.949219 221.492188 187.515625 220.980469 188.792969 220.019531 C 190.242188 218.949219 191.285156 217.414062 192 215.777344 C 192.925781 213.648438 193.386719 211.347656 193.65625 209.054688 C 193.945312 206.820312 193.90625 204.550781 193.625 202.316406 C 193.382812 200.472656 192.933594 198.636719 192.074219 196.976562 C 191.339844 195.550781 190.257812 194.277344 188.863281 193.464844 C 187.421875 192.597656 185.707031 192.308594 184.042969 192.417969 Z M 184.042969 192.417969 " fill-opacity="1" fill-rule="nonzero"/><path fill="#ffa500" d="M 124.277344 197.390625 C 125.105469 198.8125 125.996094 200.222656 127.164062 201.398438 C 127.84375 202.070312 128.632812 202.648438 129.53125 202.992188 C 130.476562 203.363281 131.5 203.460938 132.503906 203.53125 C 144.667969 204.269531 156.835938 204.960938 169.003906 205.671875 C 169.742188 205.742188 170.488281 205.703125 171.222656 205.832031 C 165.457031 205.707031 159.691406 205.652344 153.925781 205.546875 C 146.523438 205.441406 139.121094 205.316406 131.714844 205.207031 C 130.757812 205.167969 129.78125 205.257812 128.839844 205.054688 C 127.421875 204.738281 126.320312 203.5625 125.882812 202.207031 C 125.351562 200.597656 124.777344 199.003906 124.277344 197.390625 Z M 124.277344 197.390625 " fill-opacity="1" fill-rule="nonzero"/><path fill="#ffa500" d="M 133.003906 207.464844 C 133.429688 207.414062 133.855469 207.3125 134.289062 207.316406 C 142.324219 207.632812 150.359375 207.921875 158.398438 208.160156 C 161.308594 208.230469 164.21875 208.328125 167.128906 208.339844 C 167.453125 208.34375 167.78125 208.375 168.101562 208.417969 C 166.949219 208.386719 165.796875 208.515625 164.644531 208.53125 C 157.339844 208.828125 150.03125 208.847656 142.722656 208.8125 C 136.964844 208.785156 131.203125 208.683594 125.449219 208.550781 C 127.964844 208.167969 130.484375 207.828125 133.003906 207.464844 Z M 133.003906 207.464844 " fill-opacity="1" fill-rule="nonzero"/><path fill="#ffa500" d="M 200.527344 208.351562 C 200.597656 208.175781 200.789062 208.207031 200.941406 208.207031 C 205.25 208.414062 209.566406 208.597656 213.878906 208.496094 C 214.554688 209.828125 215.707031 210.921875 217.117188 211.433594 C 218.027344 211.785156 219.015625 211.921875 219.988281 211.878906 C 227.777344 212.371094 235.585938 212.777344 243.394531 212.667969 C 246.175781 212.5625 248.953125 212.398438 251.726562 212.140625 C 253.878906 211.929688 256.035156 211.675781 258.152344 211.226562 C 259.066406 211.023438 259.980469 210.800781 260.84375 210.4375 C 261.292969 210.242188 261.765625 210.019531 262.039062 209.589844 C 262.484375 210.160156 262.683594 210.875 262.886719 211.558594 C 263.074219 212.207031 262.949219 212.945312 262.503906 213.460938 C 261.859375 214.21875 260.90625 214.601562 259.988281 214.910156 C 258.074219 215.519531 256.070312 215.78125 254.082031 216.015625 C 248.921875 216.558594 243.730469 216.710938 238.546875 216.886719 C 227.824219 217.238281 217.085938 216.921875 206.398438 216.015625 C 204.675781 215.859375 202.953125 215.699219 201.238281 215.496094 C 201.101562 215.460938 200.882812 215.480469 200.859375 215.296875 C 200.863281 212.980469 200.742188 210.660156 200.527344 208.351562 Z M 200.527344 208.351562 " fill-opacity="1" fill-rule="nonzero"/><path fill="#ffa500" d="M 193.011719 219.949219 C 195.917969 217.445312 197.40625 213.597656 197.570312 209.820312 C 197.828125 210.863281 197.816406 211.949219 197.886719 213.011719 C 197.917969 214.433594 197.964844 215.855469 197.882812 217.273438 C 197.945312 217.5625 198.308594 217.644531 198.5625 217.699219 C 199.796875 217.886719 201.054688 217.871094 202.300781 217.96875 C 201.949219 218.554688 201.417969 219.003906 200.941406 219.480469 C 200.203125 220.191406 199.429688 220.867188 198.640625 221.519531 C 197.730469 222.257812 196.488281 222.207031 195.390625 222.347656 C 193.027344 222.515625 190.644531 222.691406 188.277344 222.472656 C 190.007812 221.96875 191.648438 221.132812 193.011719 219.949219 Z M 193.011719 219.949219 " fill-opacity="1" fill-rule="nonzero"/><g clip-path="url(#94ffcb59bb)"><path fill="#ffa500" d="M 106.804688 211.769531 C 108.996094 211.9375 111.175781 212.21875 113.363281 212.421875 C 123.472656 213.441406 133.589844 214.414062 143.714844 215.296875 C 150.488281 215.878906 157.261719 216.433594 164.050781 216.824219 C 165.714844 216.890625 167.375 217.015625 169.042969 217.03125 C 166.355469 217.070312 163.664062 216.996094 160.976562 216.976562 C 154.164062 216.917969 147.351562 216.863281 140.539062 216.835938 C 140.050781 216.824219 139.566406 216.851562 139.078125 216.816406 C 128.320312 215.140625 117.566406 213.433594 106.804688 211.769531 Z M 106.804688 211.769531 " fill-opacity="1" fill-rule="nonzero"/></g><g clip-path="url(#1c269bab8a)"><path fill="#ffa500" d="M 244.386719 218.507812 C 246.496094 218.449219 248.601562 218.355469 250.703125 218.175781 C 250.339844 218.835938 249.726562 219.300781 249.164062 219.777344 C 246.550781 221.8125 243.355469 223.1875 240.027344 223.382812 C 237.902344 223.503906 235.753906 223.085938 233.832031 222.175781 C 231.976562 221.3125 230.332031 220.039062 228.917969 218.570312 C 234.074219 218.632812 239.234375 218.644531 244.386719 218.507812 Z M 244.386719 218.507812 " fill-opacity="1" fill-rule="nonzero"/></g><g fill="#38b6ff" fill-opacity="1"><g transform="translate(128.460717, 157.551871)"><g><path d="M -3.0625 -16.15625 L -5.28125 -12.578125 L 4.171875 -6.6875 L 2.28125 -3.65625 L -7.171875 -9.546875 L -9.375 -6.015625 L -11.8125 -7.546875 L -5.5 -17.6875 Z M -3.0625 -16.15625 "/></g></g></g><g fill="#38b6ff" fill-opacity="1"><g transform="translate(135.815515, 145.738933)"><g><path d="M 10.203125 -10.03125 L 7.671875 -7.546875 L 3.859375 -11.421875 L -0.28125 -7.34375 L 3.53125 -3.46875 L 1 -0.984375 L -8.8125 -10.96875 L -6.28125 -13.453125 L -2.234375 -9.34375 L 1.90625 -13.421875 L -2.140625 -17.53125 L 0.390625 -20.015625 Z M 10.203125 -10.03125 "/></g></g></g><g fill="#38b6ff" fill-opacity="1"><g transform="translate(148.40095, 133.843456)"><g><path d="M 4.984375 -15.921875 L -1.40625 -12.171875 L 0 -9.78125 L 5.765625 -13.15625 L 7.1875 -10.734375 L 1.421875 -7.359375 L 2.84375 -4.921875 L 9.421875 -8.78125 L 10.84375 -6.375 L 1.21875 -0.71875 L -5.875 -12.78125 L 3.5625 -18.328125 Z M 4.984375 -15.921875 "/></g></g></g><g fill="#38b6ff" fill-opacity="1"><g transform="translate(162.115198, 126.42785)"><g/></g></g><g fill="#38b6ff" fill-opacity="1"><g transform="translate(168.548561, 123.912129)"><g><path d="M 4.234375 -3.9375 L 10.0625 -5.171875 L 10.671875 -2.25 L 1.375 -0.296875 L -1.5 -14 L 1.96875 -14.71875 Z M 4.234375 -3.9375 "/></g></g></g><g fill="#38b6ff" fill-opacity="1"><g transform="translate(181.23349, 121.219876)"><g><path d="M 14.265625 -13.734375 L 14.109375 -5.609375 C 14.078125 -3.753906 13.476562 -2.296875 12.3125 -1.234375 C 11.144531 -0.171875 9.582031 0.335938 7.625 0.296875 C 5.644531 0.265625 4.082031 -0.300781 2.9375 -1.40625 C 1.789062 -2.519531 1.234375 -4.003906 1.265625 -5.859375 L 1.421875 -13.984375 L 4.984375 -13.90625 L 4.828125 -5.78125 C 4.804688 -4.851562 5.0625 -4.101562 5.59375 -3.53125 C 6.125 -2.96875 6.820312 -2.679688 7.6875 -2.671875 C 8.539062 -2.648438 9.226562 -2.910156 9.75 -3.453125 C 10.269531 -3.992188 10.539062 -4.738281 10.5625 -5.6875 L 10.71875 -13.8125 Z M 14.265625 -13.734375 "/></g></g></g><g fill="#38b6ff" fill-opacity="1"><g transform="translate(197.965368, 121.760244)"><g><path d="M 11.109375 -4.53125 L 14.03125 3.859375 L 9.90625 2.71875 L 8.1875 -2.375 L 4.078125 1.125 L 0.09375 0.03125 L 6.796875 -5.5625 L 4.125 -13.390625 L 8.125 -12.296875 L 9.625 -7.640625 L 13.3125 -10.859375 L 17.359375 -9.75 Z M 11.109375 -4.53125 "/></g></g></g><g fill="#38b6ff" fill-opacity="1"><g transform="translate(213.605343, 126.235002)"><g><path d="M 19.09375 -5.21875 L 15.0625 1.828125 C 14.144531 3.441406 12.921875 4.4375 11.390625 4.8125 C 9.859375 5.1875 8.242188 4.890625 6.546875 3.921875 C 4.828125 2.941406 3.726562 1.691406 3.25 0.171875 C 2.769531 -1.347656 2.988281 -2.914062 3.90625 -4.53125 L 7.9375 -11.578125 L 11.03125 -9.8125 L 7 -2.765625 C 6.539062 -1.953125 6.410156 -1.171875 6.609375 -0.421875 C 6.804688 0.328125 7.28125 0.914062 8.03125 1.34375 C 8.769531 1.769531 9.492188 1.867188 10.203125 1.640625 C 10.921875 1.410156 11.515625 0.882812 11.984375 0.0625 L 16.015625 -6.984375 Z M 19.09375 -5.21875 "/></g></g></g><g fill="#38b6ff" fill-opacity="1"><g transform="translate(228.036533, 134.734672)"><g><path d="M 7.09375 6.828125 L 8.328125 2.546875 L 8.25 2.46875 L 6.296875 0.59375 L 3.5625 3.4375 L 1.015625 0.96875 L 10.71875 -9.125 L 15.21875 -4.78125 C 16.550781 -3.5 17.289062 -2.195312 17.4375 -0.875 C 17.582031 0.4375 17.117188 1.648438 16.046875 2.765625 C 14.546875 4.328125 12.890625 4.820312 11.078125 4.25 L 10 9.625 Z M 8.234375 -1.421875 L 10.1875 0.453125 C 10.738281 0.984375 11.300781 1.253906 11.875 1.265625 C 12.457031 1.285156 13 1.035156 13.5 0.515625 C 14 -0.00390625 14.222656 -0.546875 14.171875 -1.109375 C 14.128906 -1.679688 13.832031 -2.234375 13.28125 -2.765625 L 11.328125 -4.640625 Z M 8.234375 -1.421875 "/></g></g></g><g fill="#38b6ff" fill-opacity="1"><g transform="translate(239.490112, 146.103517)"><g><path d="M 8.4375 4.859375 L 4.625 7.28125 L 2.734375 4.28125 L 6.46875 1.90625 L 11.765625 -7.59375 L 13.671875 -4.609375 L 10.34375 1.515625 L 17.265625 1.03125 L 19.171875 4.046875 Z M 8.4375 4.859375 "/></g></g></g><g fill="#38b6ff" fill-opacity="1"><g transform="translate(129.977171, 244.300794)"><g><path d="M 8.46875 -7.796875 L 5.515625 -7.796875 L 5.515625 0 L 3.03125 0 L 3.03125 -7.796875 L 0.09375 -7.796875 L 0.09375 -9.8125 L 8.46875 -9.8125 Z M 8.46875 -7.796875 "/></g></g></g><g fill="#38b6ff" fill-opacity="1"><g transform="translate(139.926394, 244.300794)"><g><path d="M 7.484375 -1.8125 L 3.203125 -1.8125 L 2.484375 0 L -0.0625 0 L 4.15625 -9.796875 L 6.71875 -9.796875 L 10.84375 0 L 8.1875 0 Z M 6.765625 -3.703125 L 5.359375 -7.328125 L 3.9375 -3.703125 Z M 6.765625 -3.703125 "/></g></g></g><g fill="#38b6ff" fill-opacity="1"><g transform="translate(152.100369, 244.300794)"><g><path d="M 6.65625 -5.125 L 10.171875 0 L 7.203125 0 L 5.078125 -3.125 L 2.96875 0 L 0.0625 0 L 3.5625 -5.015625 L 0.296875 -9.796875 L 3.1875 -9.796875 L 5.078125 -6.9375 L 6.96875 -9.796875 L 9.890625 -9.796875 Z M 6.65625 -5.125 "/></g></g></g><g fill="#38b6ff" fill-opacity="1"><g transform="translate(163.770636, 244.300794)"><g><path d="M 3.46875 0 L 0.984375 0 L 0.984375 -9.796875 L 3.46875 -9.796875 Z M 3.46875 0 "/></g></g></g><g fill="#38b6ff" fill-opacity="1"><g transform="translate(169.620151, 244.300794)"><g/></g></g><g fill="#38b6ff" fill-opacity="1"><g transform="translate(174.266332, 244.300794)"><g><path d="M 4.75 -9.90625 C 6.207031 -9.90625 7.492188 -9.539062 8.609375 -8.8125 L 7.671875 -6.875 C 7.160156 -7.175781 6.609375 -7.421875 6.015625 -7.609375 C 5.429688 -7.796875 4.9375 -7.890625 4.53125 -7.890625 C 3.8125 -7.890625 3.453125 -7.65625 3.453125 -7.1875 C 3.453125 -6.875 3.628906 -6.625 3.984375 -6.4375 C 4.335938 -6.25 4.769531 -6.085938 5.28125 -5.953125 C 5.789062 -5.816406 6.300781 -5.65625 6.8125 -5.46875 C 7.320312 -5.28125 7.753906 -4.96875 8.109375 -4.53125 C 8.460938 -4.101562 8.640625 -3.5625 8.640625 -2.90625 C 8.640625 -1.96875 8.269531 -1.234375 7.53125 -0.703125 C 6.789062 -0.179688 5.851562 0.078125 4.71875 0.078125 C 3.90625 0.078125 3.101562 -0.0546875 2.3125 -0.328125 C 1.519531 -0.609375 0.828125 -0.992188 0.234375 -1.484375 L 1.203125 -3.40625 C 1.703125 -2.976562 2.285156 -2.625 2.953125 -2.34375 C 3.628906 -2.070312 4.226562 -1.9375 4.75 -1.9375 C 5.144531 -1.9375 5.453125 -2.003906 5.671875 -2.140625 C 5.898438 -2.285156 6.015625 -2.5 6.015625 -2.78125 C 6.015625 -3.050781 5.882812 -3.273438 5.625 -3.453125 C 5.375 -3.640625 5.054688 -3.773438 4.671875 -3.859375 C 4.296875 -3.953125 3.882812 -4.070312 3.4375 -4.21875 C 2.988281 -4.375 2.570312 -4.539062 2.1875 -4.71875 C 1.800781 -4.894531 1.476562 -5.175781 1.21875 -5.5625 C 0.96875 -5.945312 0.84375 -6.410156 0.84375 -6.953125 C 0.84375 -7.847656 1.195312 -8.5625 1.90625 -9.09375 C 2.625 -9.632812 3.570312 -9.90625 4.75 -9.90625 Z M 4.75 -9.90625 "/></g></g></g><g fill="#38b6ff" fill-opacity="1"><g transform="translate(184.677299, 244.300794)"><g><path d="M 8.65625 -7.84375 L 3.46875 -7.84375 L 3.46875 -5.890625 L 8.140625 -5.890625 L 8.140625 -3.9375 L 3.46875 -3.9375 L 3.46875 -1.953125 L 8.8125 -1.953125 L 8.8125 0 L 0.984375 0 L 0.984375 -9.796875 L 8.65625 -9.796875 Z M 8.65625 -7.84375 "/></g></g></g><g fill="#38b6ff" fill-opacity="1"><g transform="translate(195.508027, 244.300794)"><g><path d="M 6.890625 0 L 5.4375 -2.765625 L 3.46875 -2.765625 L 3.46875 0 L 0.984375 0 L 0.984375 -9.796875 L 5.359375 -9.796875 C 6.660156 -9.796875 7.664062 -9.5 8.375 -8.90625 C 9.082031 -8.3125 9.4375 -7.472656 9.4375 -6.390625 C 9.4375 -4.867188 8.84375 -3.816406 7.65625 -3.234375 L 9.71875 0 Z M 3.46875 -4.71875 L 5.359375 -4.71875 C 5.898438 -4.71875 6.316406 -4.851562 6.609375 -5.125 C 6.910156 -5.394531 7.0625 -5.785156 7.0625 -6.296875 C 7.0625 -6.804688 6.910156 -7.191406 6.609375 -7.453125 C 6.316406 -7.710938 5.898438 -7.84375 5.359375 -7.84375 L 3.46875 -7.84375 Z M 3.46875 -4.71875 "/></g></g></g><g fill="#38b6ff" fill-opacity="1"><g transform="translate(207.038366, 244.300794)"><g><path d="M 6.375 0 L 3.796875 0 L -0.015625 -9.796875 L 2.640625 -9.796875 L 5.15625 -2.59375 L 7.65625 -9.796875 L 10.21875 -9.796875 Z M 6.375 0 "/></g></g></g><g fill="#38b6ff" fill-opacity="1"><g transform="translate(218.638664, 244.300794)"><g><path d="M 3.46875 0 L 0.984375 0 L 0.984375 -9.796875 L 3.46875 -9.796875 Z M 3.46875 0 "/></g></g></g><g fill="#38b6ff" fill-opacity="1"><g transform="translate(224.488179, 244.300794)"><g><path d="M 5.578125 -9.890625 C 6.296875 -9.890625 7.007812 -9.738281 7.71875 -9.4375 C 8.425781 -9.132812 9.023438 -8.734375 9.515625 -8.234375 L 8.078125 -6.53125 C 7.765625 -6.914062 7.382812 -7.222656 6.9375 -7.453125 C 6.488281 -7.679688 6.046875 -7.796875 5.609375 -7.796875 C 4.835938 -7.796875 4.191406 -7.519531 3.671875 -6.96875 C 3.148438 -6.425781 2.890625 -5.753906 2.890625 -4.953125 C 2.890625 -4.128906 3.148438 -3.441406 3.671875 -2.890625 C 4.191406 -2.347656 4.835938 -2.078125 5.609375 -2.078125 C 6.023438 -2.078125 6.453125 -2.175781 6.890625 -2.375 C 7.335938 -2.582031 7.734375 -2.863281 8.078125 -3.21875 L 9.53125 -1.6875 C 9 -1.144531 8.367188 -0.707031 7.640625 -0.375 C 6.921875 -0.0507812 6.203125 0.109375 5.484375 0.109375 C 4.015625 0.109375 2.789062 -0.367188 1.8125 -1.328125 C 0.832031 -2.285156 0.34375 -3.484375 0.34375 -4.921875 C 0.34375 -6.335938 0.835938 -7.519531 1.828125 -8.46875 C 2.828125 -9.414062 4.078125 -9.890625 5.578125 -9.890625 Z M 5.578125 -9.890625 "/></g></g></g><g fill="#38b6ff" fill-opacity="1"><g transform="translate(235.570768, 244.300794)"><g><path d="M 8.65625 -7.84375 L 3.46875 -7.84375 L 3.46875 -5.890625 L 8.140625 -5.890625 L 8.140625 -3.9375 L 3.46875 -3.9375 L 3.46875 -1.953125 L 8.8125 -1.953125 L 8.8125 0 L 0.984375 0 L 0.984375 -9.796875 L 8.65625 -9.796875 Z M 8.65625 -7.84375 "/></g></g></g></svg>